HIERARCHY
ROOT Hips
{
	OFFSET 0.000000 0.000000 0.000000
	CHANNELS 6 Xposition Yposition Zposition Xrotation Yrotation Zrotation
	JOINT LeftUpLeg_virtual
	{
		OFFSET 0.000000 0.000000 0.000000
		CHANNELS 3 Xrotation Yrotation Zrotation
		JOINT LeftUpLeg
		{
			OFFSET 15.427100 -6.655098 0.678600
			CHANNELS 3 Xrotation Yrotation Zrotation
			JOINT LeftLeg
			{
				OFFSET 4.081073 -39.591068 13.024000
				CHANNELS 3 Xrotation Yrotation Zrotation
				JOINT LeftFoot
				{
					OFFSET -4.081074 -37.707932 -15.979700
					CHANNELS 3 Xrotation Yrotation Zrotation
					JOINT LeftToeBase
					{
						OFFSET 5.346399 -15.068900 20.645000
						CHANNELS 3 Xrotation Yrotation Zrotation
						JOINT LeftToe_End
						{
							OFFSET 2.754700 0.931300 11.300900
							CHANNELS 3 Xrotation Yrotation Zrotation
							End Site
							{
								OFFSET 0 0 0
							}
						}
					}
				}
			}
		}
	}
	JOINT RightUpLeg_virtual
	{
		OFFSET 0.000000 0.000000 0.000000
		CHANNELS 3 Xrotation Yrotation Zrotation
		JOINT RightUpLeg
		{
			OFFSET -15.569500 -6.655098 0.678600
			CHANNELS 3 Xrotation Yrotation Zrotation
			JOINT RightLeg
			{
				OFFSET -4.081825 -39.591045 13.023800
				CHANNELS 3 Xrotation Yrotation Zrotation
				JOINT RightFoot
				{
					OFFSET 4.081824 -37.707954 -15.979600
					CHANNELS 3 Xrotation Yrotation Zrotation
					JOINT RightToeBase
					{
						OFFSET -5.346400 -15.068900 20.645000
						CHANNELS 3 Xrotation Yrotation Zrotation
						JOINT RightToe_End
						{
							OFFSET -2.754700 0.931300 11.300900
							CHANNELS 3 Xrotation Yrotation Zrotation
							End Site
							{
								OFFSET 0 0 0
							}
						}
					}
				}
			}
		}
	}
	JOINT Spine_virtual
	{
		OFFSET 0.000000 0.000000 0.000000
		CHANNELS 3 Xrotation Yrotation Zrotation
		JOINT Spine
		{
			OFFSET -0.279200 12.230698 -2.892100
			CHANNELS 3 Xrotation Yrotation Zrotation
			JOINT Spine1
			{
				OFFSET -0.232667 10.192268 -1.242267
				CHANNELS 3 Xrotation Yrotation Zrotation
				JOINT Spine1_split
				{
					OFFSET -0.232667 10.192268 -1.242267
					CHANNELS 3 Xrotation Yrotation Zrotation
					JOINT Spine2
					{
						OFFSET -0.232667 10.192268 -1.242267
						CHANNELS 3 Xrotation Yrotation Zrotation
						JOINT Neck_virtual
						{
							OFFSET 0.000000 0.000000 0.000000
							CHANNELS 3 Xrotation Yrotation Zrotation
							JOINT Neck
							{
								OFFSET -0.418800 17.814194 8.416900
								CHANNELS 3 Xrotation Yrotation Zrotation
								JOINT Head
								{
									OFFSET 0.000000 7.031097 3.806800
									CHANNELS 3 Xrotation Yrotation Zrotation
									JOINT HeadTop_End
									{
										OFFSET 0.000000 24.646606 12.978600
										CHANNELS 3 Xrotation Yrotation Zrotation
										End Site
										{
											OFFSET 0 0 0
										}
									}
								}
							}
						}
						JOINT LeftShoulder_virtual
						{
							OFFSET 0.000000 0.000000 0.000000
							CHANNELS 3 Xrotation Yrotation Zrotation
							JOINT LeftShoulder
							{
								OFFSET 8.476499 7.247704 -3.868750
								CHANNELS 3 Xrotation Yrotation Zrotation
								JOINT LeftShoulder_split
								{
									OFFSET 8.476499 7.247704 -3.868750
									CHANNELS 3 Xrotation Yrotation Zrotation
									JOINT LeftArm
									{
										OFFSET 9.308998 -2.777710 0.208600
										CHANNELS 3 Xrotation Yrotation Zrotation
										JOINT LeftForeArm
										{
											OFFSET 29.972298 0.000000 0.000000
											CHANNELS 3 Xrotation Yrotation Zrotation
											JOINT LeftHand
											{
												OFFSET 26.026505 0.000000 0.000000
												CHANNELS 3 Xrotation Yrotation Zrotation
												End Site
												{
													OFFSET 0 0 0
												}
											}
										}
									}
								}
							}
						}
						JOINT RightShoulder_virtual
						{
							OFFSET 0.000000 0.000000 0.000000
							CHANNELS 3 Xrotation Yrotation Zrotation
							JOINT RightShoulder
							{
								OFFSET -7.570500 7.247704 -3.868750
								CHANNELS 3 Xrotation Yrotation Zrotation
								JOINT RightShoulder_split
								{
									OFFSET -7.570500 7.247704 -3.868750
									CHANNELS 3 Xrotation Yrotation Zrotation
									JOINT RightArm
									{
										OFFSET -9.308998 -2.777710 0.208500
										CHANNELS 3 Xrotation Yrotation Zrotation
										JOINT RightForeArm
										{
											OFFSET -29.972300 0.000000 0.000000
											CHANNELS 3 Xrotation Yrotation Zrotation
											JOINT RightHand
											{
												OFFSET -26.026505 0.000000 0.000000
												CHANNELS 3 Xrotation Yrotation Zrotation
												End Site
												{
													OFFSET 0 0 0
												}
											}
										}
									}
								}
							}
						}
					}
				}
			}
		}
	}
}
MOTION
Frames: 8
Frame Time: 0.03333333
0.073000 85.246468 8.361778 0.000000 0.000000 0.000000 -14.522978 -1.752298 -4.966373 -32.766115 22.195367 11.126955 41.902032 -6.434520 10.380788 -0.388695 -7.684023 -0.490481 -2.170157 -0.076592 -1.443333 0.000000 0.000000 0.000000 -14.201048 -1.034186 -4.964717 -19.904030 -32.197242 -2.321178 34.496318 7.154639 -9.665506 -0.002337 8.432370 -5.097247 -1.856950 0.850609 0.642935 0.000000 0.000000 0.000000 -14.419648 -2.024528 -5.365723 5.135301 -1.312464 2.301685 13.612767 -0.785796 -0.561451 0.482048 2.386758 -0.450203 0.000000 0.000000 0.000000 12.154944 -0.242356 -0.738222 12.050028 0.720136 1.074622 -2.472663 0.632459 3.007822 0.000000 0.000000 0.000000 12.446062 -0.122480 -0.821254 0.849167 6.750806 -10.182566 -2.005590 -2.666715 -0.534518 65.366980 -67.225324 -5.001079 0.226412 -26.939436 1.338303 0.000000 0.000000 0.000000 12.540236 -0.330127 -0.813622 1.392343 -1.560709 11.627374 6.176865 0.549680 -2.495264 6.477037 35.793507 57.887930 -0.946964 27.996491 0.368626 0.000000 0.000000 0.000000 
0.061326 85.254860 8.376244 0.000000 0.000000 0.000000 -14.515955 -1.733216 -4.968665 -32.771104 22.204296 11.127088 41.896811 -6.428903 10.385624 -0.377119 -7.678879 -0.486709 -2.170576 -0.076808 -1.442247 0.000000 0.000000 0.000000 -14.194396 -1.023298 -4.967262 -19.897627 -32.187488 -2.319894 34.481940 7.160623 -9.665699 0.006128 8.447894 -5.082316 -1.882518 0.848573 0.645018 0.000000 0.000000 0.000000 -14.409293 -2.008859 -5.364964 5.127932 -1.309688 2.303048 13.612477 -0.785037 -0.564055 0.480705 2.380549 -0.452709 0.000000 0.000000 0.000000 12.159453 -0.242105 -0.741223 12.056547 0.720942 1.073362 -2.485557 0.640275 3.004729 0.000000 0.000000 0.000000 12.448633 -0.121937 -0.821857 0.847416 6.737071 -10.180209 -2.016525 -2.657288 -0.524491 65.334659 -67.191002 -5.020947 0.213971 -26.942122 1.323636 0.000000 0.000000 0.000000 12.536870 -0.331722 -0.815237 1.392352 -1.566114 11.626719 6.185254 0.546115 -2.491757 6.464777 35.805190 57.895914 -0.948604 28.014332 0.370363 0.000000 0.000000 0.000000 
0.049242 85.267403 8.390503 0.000000 0.000000 0.000000 -14.504101 -1.689123 -4.972497 -32.780325 22.197860 11.124210 41.882908 -6.431774 10.394586 -0.356528 -7.681174 -0.484871 -2.176358 -0.077886 -1.436753 0.000000 0.000000 0.000000 -14.180209 -0.996359 -4.972514 -19.874018 -32.207303 -2.320735 34.449773 7.167863 -9.661218 0.005763 8.475233 -5.074273 -1.882410 0.849643 0.649196 0.000000 0.000000 0.000000 -14.392641 -1.976852 -5.365471 5.124865 -1.308496 2.307616 13.610424 -0.789652 -0.566835 0.485216 2.378728 -0.453019 0.000000 0.000000 0.000000 12.162491 -0.246952 -0.745174 12.052184 0.722469 1.088846 -2.509418 0.673488 2.989415 0.000000 0.000000 0.000000 12.449492 -0.126937 -0.822319 0.845274 6.731096 -10.173494 -2.019707 -2.664526 -0.514635 65.083711 -67.172322 -5.242119 0.202639 -26.911389 1.311309 0.000000 0.000000 0.000000 12.531697 -0.338759 -0.817449 1.393832 -1.571903 11.617431 6.191954 0.549385 -2.486521 6.454016 35.812635 57.906002 -0.946786 28.034894 0.372444 0.000000 0.000000 0.000000 
0.039178 85.278152 8.403751 0.000000 0.000000 0.000000 -14.490248 -1.628932 -4.976963 -32.794860 22.179344 11.118955 41.867338 -6.437055 10.404448 -0.330587 -7.686658 -0.476883 -2.184382 -0.079775 -1.428700 0.000000 0.000000 0.000000 -14.163491 -0.953263 -4.979358 -19.840646 -32.253468 -2.325427 34.405924 7.174887 -9.653156 -0.004694 8.507459 -5.073886 -1.863914 0.854173 0.654151 0.000000 0.000000 0.000000 -14.374418 -1.930728 -5.366713 5.126457 -1.309663 2.314197 13.607198 -0.798932 -0.569088 0.489035 2.382454 -0.455264 0.000000 0.000000 0.000000 12.165699 -0.256248 -0.748710 12.036777 0.725279 1.118782 -2.541157 0.729800 2.961907 0.000000 0.000000 0.000000 12.448805 -0.136598 -0.821897 0.842481 6.733988 -10.161821 -2.018393 -2.679883 -0.505456 64.632024 -67.173708 -5.655402 0.194384 -26.860380 1.303753 0.000000 0.000000 0.000000 12.525784 -0.350478 -0.819558 1.397003 -1.576272 11.600252 6.198577 0.563448 -2.480412 6.448105 35.817437 57.915626 -0.941995 28.053390 0.375127 0.000000 0.000000 0.000000 
0.031644 85.285545 8.416103 0.000000 0.000000 0.000000 -14.474788 -1.560921 -4.980561 -32.813991 22.153591 11.109251 41.854832 -6.438460 10.412286 -0.306988 -7.689042 -0.455534 -2.191468 -0.081487 -1.420718 0.000000 0.000000 0.000000 -14.145923 -0.896435 -4.985145 -19.804603 -32.317539 -2.337048 34.363744 7.183442 -9.643192 -0.023899 8.539207 -5.069861 -1.855663 0.861555 0.658221 0.000000 0.000000 0.000000 -14.357227 -1.874945 -5.368293 5.132399 -1.314248 2.321131 13.603762 -0.812203 -0.569901 0.492106 2.386709 -0.458687 0.000000 0.000000 0.000000 12.169878 -0.269032 -0.750533 12.011379 0.729105 1.159035 -2.575347 0.807465 2.922563 0.000000 0.000000 0.000000 12.447857 -0.150177 -0.819534 0.838882 6.746571 -10.142936 -2.014421 -2.699900 -0.497862 64.017942 -67.195988 -6.228643 0.191730 -26.796167 1.302662 0.000000 0.000000 0.000000 12.520182 -0.366187 -0.820591 1.401638 -1.577848 11.574937 6.202555 0.584367 -2.472067 6.449363 35.822881 57.919273 -0.935782 28.063123 0.378772 0.000000 0.000000 0.000000 
0.026627 85.287369 8.426399 0.000000 0.000000 0.000000 -14.456353 -1.490975 -4.981865 -32.836664 22.123678 11.094313 41.847169 -6.433174 10.416365 -0.289941 -7.684300 -0.420804 -2.196580 -0.082165 -1.415050 0.000000 0.000000 0.000000 -14.130195 -0.829727 -4.988761 -19.770722 -32.385158 -2.355031 34.332899 7.194571 -9.634398 -0.045796 8.563189 -5.053614 -1.873442 0.870185 0.660065 0.000000 0.000000 0.000000 -14.343402 -1.813328 -5.368839 5.140616 -1.322780 2.327272 13.600873 -0.828793 -0.568654 0.492746 2.390209 -0.466702 0.000000 0.000000 0.000000 12.175972 -0.285113 -0.749611 11.976848 0.734642 1.204471 -2.604353 0.903700 2.873587 0.000000 0.000000 0.000000 12.448397 -0.166954 -0.814751 0.834463 6.767731 -10.114970 -2.002502 -2.724230 -0.487271 63.300540 -67.236116 -6.911593 0.194220 -26.722106 1.308039 0.000000 0.000000 0.000000 12.517283 -0.385232 -0.819310 1.407847 -1.574785 11.542852 6.201926 0.601956 -2.460444 6.461175 35.832634 57.913393 -0.929652 28.060686 0.384226 0.000000 0.000000 0.000000 
0.022749 85.285919 8.434837 0.000000 0.000000 0.000000 -14.439165 -1.425331 -4.980775 -32.859842 22.090671 11.073056 41.842152 -6.424242 10.417779 -0.275990 -7.672044 -0.382503 -2.200107 -0.081423 -1.412763 0.000000 0.000000 0.000000 -14.116562 -0.758967 -4.988646 -19.740152 -32.440595 -2.375031 34.319617 7.206480 -9.627492 -0.071944 8.569500 -5.020782 -1.906936 0.878246 0.659715 0.000000 0.000000 0.000000 -14.333350 -1.746351 -5.367768 5.150148 -1.336167 2.332399 13.598476 -0.848340 -0.564531 0.491058 2.392179 -0.475364 0.000000 0.000000 0.000000 12.183375 -0.303871 -0.745305 11.935176 0.742268 1.250164 -2.621037 1.010673 2.818491 0.000000 0.000000 0.000000 12.451882 -0.186533 -0.807462 0.829187 6.794377 -10.077451 -1.994331 -2.742835 -0.476527 62.547000 -67.284849 -7.644417 0.198729 -26.628408 1.317510 0.000000 0.000000 0.000000 12.517832 -0.406587 -0.814849 1.416318 -1.565394 11.505124 6.199108 0.614545 -2.445848 6.487323 35.848504 57.892868 -0.924875 28.047955 0.391105 0.000000 0.000000 0.000000 
0.021290 85.283783 8.439358 0.000000 0.000000 0.000000 -14.425168 -1.363902 -4.978067 -32.881675 22.054800 11.045804 41.838751 -6.416800 10.417492 -0.259185 -7.654937 -0.351305 -2.201313 -0.079487 -1.414278 0.000000 0.000000 0.000000 -14.104891 -0.689401 -4.985096 -19.711045 -32.471505 -2.389781 34.324559 7.214390 -9.622497 -0.107304 8.548468 -4.978114 -1.935995 0.884526 0.658163 0.000000 0.000000 0.000000 -14.326100 -1.677941 -5.364957 5.159272 -1.354568 2.337934 13.597279 -0.870596 -0.556695 0.485384 2.396420 -0.480662 0.000000 0.000000 0.000000 12.191056 -0.325157 -0.737081 11.887256 0.750672 1.292159 -2.620899 1.120043 2.760639 0.000000 0.000000 0.000000 12.459081 -0.208768 -0.797687 0.823052 6.822648 -10.032205 -1.989100 -2.763445 -0.467163 61.813396 -67.334122 -8.379042 0.203007 -26.507462 1.328957 0.000000 0.000000 0.000000 12.522119 -0.429748 -0.806379 1.426738 -1.547978 11.463701 6.196224 0.626460 -2.430315 6.530362 35.866594 57.853615 -0.922665 28.031793 0.399422 0.000000 0.000000 0.000000 
